<svg width="39" height="40" viewBox="0 0 39 40" fill="none" xmlns="http://www.w3.org/2000/svg">
<g clip-path="url(#clip0_624_2365)">
<path d="M38.3817 20.1705C38.3817 18.5481 38.2511 17.3642 37.9683 16.1364H19.5825V23.4591H30.3746C30.1571 25.2789 28.9821 28.0194 26.3711 29.861L26.3345 30.1061L32.1477 34.644L32.5505 34.6845C36.2493 31.2423 38.3817 26.1777 38.3817 20.1705Z" fill="#4285F4"/>
<path d="M19.5825 39.4639C24.8697 39.4639 29.3083 37.7099 32.5504 34.6844L26.371 29.8609C24.7174 31.0229 22.498 31.8341 19.5825 31.8341C14.404 31.8341 10.0089 28.3921 8.44215 23.6345L8.2125 23.6542L2.1678 28.3679L2.08875 28.5894C5.30895 35.0351 11.9235 39.4639 19.5825 39.4639Z" fill="#34A853"/>
<path d="M8.44215 23.6345C8.02875 22.4068 7.7895 21.0912 7.7895 19.732C7.7895 18.3726 8.02875 17.0572 8.4204 15.8294L8.40945 15.5679L2.289 10.7784L2.08875 10.8744C0.76155 13.5492 0 16.5529 0 19.732C0 22.911 0.76155 25.9146 2.08875 28.5894L8.44215 23.6345Z" fill="#FBBC05"/>
<path d="M19.5825 7.62965C23.2596 7.62965 25.74 9.23012 27.1543 10.5676L32.6809 5.13032C29.2867 1.95128 24.8697 0 19.5825 0C11.9235 0 5.30895 4.4287 2.08875 10.8744L8.4204 15.8294C10.0089 11.0718 14.404 7.62965 19.5825 7.62965Z" fill="#EB4335"/>
</g>
<defs>
<clipPath id="clip0_624_2365">
<rect width="38.4" height="39.6" fill="white"/>
</clipPath>
</defs>
</svg>
